# xmcd CD database file
#
# Track frame offsets:
#	150
#	29642
#	56048
#	71446
#	105517
#	126976
#	154239
#	198503
#	225925
#	254082
#	285205
#
# Disc length: 4091 seconds
#
# Revision: 0
# Processed by: cddbd v1.5.2PL0 Copyright (c) Steve Scherf et al.
# Submitted via: CDex 1.70beta2
#
DISCID=9a0ff90b
DTITLE=ZubopGambia - Recorded Live at Ronnie Scott's
DYEAR=2004
DGENRE=Jazz
TTITLE0=Madinah
TTITLE1=Fool's Gold
TTITLE2=Pi Jen
TTITLE3=Paradise Angle
TTITLE4=Celebration
TTITLE5=Faraway
TTITLE6=Jawo
TTITLE7=M'aidez Juldeh
TTITLE8=Lumbi Gada Mayo/Jarama Zubop
TTITLE9=Gatché Hare
TTITLE10=Dawda Sané
EXTD=YEAR: 2004
EXTT0=
EXTT1=
EXTT2=
EXTT3=
EXTT4=
EXTT5=
EXTT6=
EXTT7=
EXTT8=
EXTT9=
EXTT10=
PLAYORDER=
